<svg width="64" height="65" viewBox="0 0 64 65" fill="none" xmlns="http://www.w3.org/2000/svg">
<g clip-path="url(#clip0_1353_9223)">
<circle cx="31.6859" cy="33.182" r="21.1244" stroke="#0E5C66" stroke-width="1.00592"/>
<path d="M30.9361 45.8291V23.5534H32.3632V45.8291H30.9361ZM35.4 30.4624C35.3072 29.6387 34.9243 29.0005 34.2514 28.5481C33.5785 28.0898 32.7315 27.8607 31.7106 27.8607C30.9797 27.8607 30.3474 27.9767 29.8137 28.2087C29.28 28.435 28.8652 28.7482 28.5694 29.1485C28.2793 29.5429 28.1343 29.9925 28.1343 30.4972C28.1343 30.9207 28.2329 31.2861 28.4301 31.5936C28.6332 31.901 28.8971 32.1592 29.222 32.368C29.5526 32.571 29.9065 32.7422 30.2835 32.8814C30.6606 33.0148 31.0232 33.125 31.3712 33.212L33.1115 33.6645C33.68 33.8037 34.263 33.9923 34.8605 34.2301C35.458 34.468 36.012 34.7812 36.5225 35.1699C37.033 35.5585 37.4448 36.04 37.7581 36.6143C38.0771 37.1886 38.2367 37.876 38.2367 38.6765C38.2367 39.6859 37.9756 40.5822 37.4535 41.3653C36.9372 42.1484 36.186 42.7662 35.1999 43.2187C34.2195 43.6712 33.0332 43.8974 31.641 43.8974C30.3067 43.8974 29.1524 43.6857 28.1778 43.2622C27.2032 42.8387 26.4404 42.2383 25.8893 41.461C25.3382 40.6779 25.0337 39.7497 24.9757 38.6765H27.6731C27.7253 39.3205 27.9342 39.857 28.2996 40.2863C28.6709 40.7098 29.1437 41.0259 29.7179 41.2348C30.298 41.4378 30.9332 41.5393 31.6236 41.5393C32.3835 41.5393 33.0593 41.4204 33.651 41.1826C34.2485 40.9389 34.7184 40.6025 35.0606 40.1732C35.4029 39.7381 35.574 39.2305 35.574 38.6504C35.574 38.1226 35.4232 37.6904 35.1215 37.3539C34.8257 37.0175 34.4225 36.739 33.912 36.5186C33.4074 36.2982 32.836 36.1038 32.1979 35.9356L30.0921 35.3613C28.6651 34.9726 27.5339 34.4012 26.6985 33.6471C25.869 32.893 25.4542 31.8952 25.4542 30.6538C25.4542 29.6271 25.7327 28.7308 26.2896 27.9651C26.8465 27.1994 27.6006 26.6048 28.552 26.1813C29.5033 25.752 30.5765 25.5374 31.7715 25.5374C32.9781 25.5374 34.0426 25.7491 34.9649 26.1726C35.8931 26.5961 36.624 27.179 37.1577 27.9216C37.6914 28.6583 37.9698 29.5052 37.993 30.4624H35.4Z" fill="#F04A3D"/>
<mask id="path-3-inside-1_1353_9223" fill="white">
<path d="M45.31 7.95211C48.799 9.83623 51.8592 12.4236 54.2973 15.5508C56.7353 18.678 58.4981 22.2769 59.4742 26.1201C60.4504 29.9633 60.6187 33.9672 59.9685 37.8788C59.3183 41.7904 57.8637 45.5245 55.6967 48.8453C53.5297 52.166 50.6974 55.0011 47.3788 57.1714C44.0602 59.3416 40.3275 60.7999 36.4166 61.4539C32.5056 62.108 28.5015 61.9436 24.6574 60.9712C20.8132 59.9988 17.2126 58.2396 14.083 55.8046L14.8388 54.8332C17.834 57.1637 21.2801 58.8474 24.9592 59.778C28.6383 60.7087 32.4705 60.866 36.2136 60.24C39.9566 59.614 43.5291 58.2184 46.7052 56.1413C49.8813 54.0642 52.5921 51.3508 54.666 48.1727C56.74 44.9945 58.1321 41.4206 58.7544 37.677C59.3767 33.9334 59.2156 30.1013 58.2814 26.4231C57.3471 22.7449 55.66 19.3005 53.3266 16.3075C50.9933 13.3146 48.0644 10.8383 44.7252 9.03505L45.31 7.95211Z"/>
</mask>
<path d="M45.31 7.95211C48.799 9.83623 51.8592 12.4236 54.2973 15.5508C56.7353 18.678 58.4981 22.2769 59.4742 26.1201C60.4504 29.9633 60.6187 33.9672 59.9685 37.8788C59.3183 41.7904 57.8637 45.5245 55.6967 48.8453C53.5297 52.166 50.6974 55.0011 47.3788 57.1714C44.0602 59.3416 40.3275 60.7999 36.4166 61.4539C32.5056 62.108 28.5015 61.9436 24.6574 60.9712C20.8132 59.9988 17.2126 58.2396 14.083 55.8046L14.8388 54.8332C17.834 57.1637 21.2801 58.8474 24.9592 59.778C28.6383 60.7087 32.4705 60.866 36.2136 60.24C39.9566 59.614 43.5291 58.2184 46.7052 56.1413C49.8813 54.0642 52.5921 51.3508 54.666 48.1727C56.74 44.9945 58.1321 41.4206 58.7544 37.677C59.3767 33.9334 59.2156 30.1013 58.2814 26.4231C57.3471 22.7449 55.66 19.3005 53.3266 16.3075C50.9933 13.3146 48.0644 10.8383 44.7252 9.03505L45.31 7.95211Z" stroke="#0E5C66" stroke-width="2.01185" mask="url(#path-3-inside-1_1353_9223)"/>
<path d="M40.722 5.36911L48.2857 5.70939L43.4865 12.4178L40.722 5.36911Z" fill="#005761"/>
</g>
<defs>
<clipPath id="clip0_1353_9223">
<rect width="64" height="64" fill="white" transform="translate(0 0.488281)"/>
</clipPath>
</defs>
</svg>
