<svg width="64" height="65" viewBox="0 0 64 65" fill="none" xmlns="http://www.w3.org/2000/svg">
<path fill-rule="evenodd" clip-rule="evenodd" d="M45.3789 3.49589C46.4201 3.25563 47.9543 3.14555 49.1978 3.54729C49.8112 3.74548 50.3296 4.06004 50.6952 4.52082C51.0569 4.97678 51.3014 5.61621 51.3014 6.52654V6.55005V6.57343V6.59669V6.61981V6.6428V6.66566V6.6884V6.711V6.73348V6.75583V6.77805V6.80015V6.82212V6.84396V6.86567V6.88726V6.90873V6.93006V6.95128V6.97236V6.99333V7.01417V7.03488V7.05547V7.07594V7.09628V7.11651V7.13661V7.15658V7.17644V7.19617V7.21578V7.23527V7.25464V7.27389V7.29302V7.31203V7.33092V7.34969V7.36834V7.38687V7.40528V7.42358V7.44176V7.45982V7.47776V7.49559V7.51329V7.53089V7.54836V7.56572V7.58297V7.6001V7.61711V7.63401V7.6508V7.66747V7.68403V7.70047V7.7168V7.73302V7.74913V7.76512V7.781V7.79677V7.81243V7.82797V7.84341V7.85873V7.87395V7.88905V7.90405V7.91893V7.93371V7.94838V7.96294V7.97739V7.99173V8.00392C50.6087 7.70644 49.777 7.53223 48.7866 7.53223H48.7604H48.7339H48.7069H48.6796H48.6518H48.6237H48.5951H48.5662H48.5368H48.5071H48.4769H48.4464H48.4155H48.3841H48.3524H48.3204H48.2879H48.255H48.2218H48.1881H48.1541H48.1197H48.085H48.0498H48.0143H47.9784H47.9421H47.9055H47.8685H47.8311H47.7933H47.7552H47.7167H47.6779H47.6387H47.5991H47.5592H47.5189H47.4782H47.4372H47.3959H47.3542H47.3121H47.2697H47.2269H47.1838H47.1404H47.0965H47.0524H47.0079H46.9631H46.9179H46.8724H46.8265H46.7803H46.7338H46.687H46.6398H46.5923H46.5444H46.4962H46.4477H46.3989H46.3497H46.3003H46.2505H46.2003H46.1499H46.0992H46.0481H45.9967H45.945H45.893H45.8406H45.788H45.7351H45.6818H45.6282H45.5744H45.5202H45.4657H45.411H45.3559H45.3005H45.2449H45.1889H45.1326H45.0761H45.0193H44.9621H44.9047H44.847H44.789H44.7307H44.6722H44.6133H44.5542H44.4948H44.4351H44.3752H44.3149H44.2544H44.1936H44.1326H44.0712H44.0097H43.9478H43.8857H43.8233H43.7606H43.6977H43.6345H43.5711H43.5074H43.4434H43.3792H43.3147H43.25H43.185H43.1198H43.0543H42.9886H42.9226H42.8564H42.79H42.7233H42.6563H42.5891H42.5217H42.454H42.3862H42.318H42.2497H42.1811H42.1122H42.0432H41.9739H41.9044H41.8346H41.7647H41.6945H41.6241H41.5535H41.4826H41.4115H41.3403H41.2688H41.1971H41.1251H41.053H40.9807H40.9081H40.8353H40.7624H40.6892H40.6158H40.5423H40.4685H40.3945H40.3203H40.246H40.1714H40.0966H40.0217H39.9465H39.8712H39.7957H39.72H39.6441H39.568H39.4917H39.4153H39.3386H39.2618H39.1849H39.1077H39.0304H38.9528H38.8752H38.7973H38.7193H38.6411H38.5627H38.4842H38.4055H38.3266H38.2476H38.1684H38.0891H38.0096H37.9299H37.8501H37.7701H37.69H37.6097H37.5293H37.4487H37.368H37.2871H37.2061H37.125H37.0437H36.9622H36.8806H36.7989H36.7171H36.6351H36.5529H36.4707H36.3883H36.3057H36.2231H36.1403H36.0574H35.9744H35.8912H35.8079H35.7245H35.641H35.5573H35.4736H35.3897H35.3057H35.2216H35.1374H35.0531H34.9686H34.8841H34.7994H34.7147H34.6298H34.5448H34.4597H34.3746H34.2893H34.2039H34.1185H34.0329H33.9473H33.8615H33.7757H33.6897H33.6037H33.5176H33.4314H33.3452H33.2588H33.1724H33.0858H32.9992H32.9126H32.8258H32.739H32.6521H32.5651H32.478H32.3909H32.3037H32.2165H32.1291H32.0418H31.9543H31.8668H31.7792H31.6916H31.6039H31.5161H31.4283H31.3405H31.2526H31.1646H31.0766H30.9885H30.9004H30.8123H30.724H30.6358H30.5475H30.4592H30.3708H30.2824H30.1939H30.1055H30.0169H29.9284H29.8398H29.7512H29.6626H29.5739H29.4852H29.3965H29.3077H29.2189H29.1302H29.0413H28.9525H28.8637H28.7748H28.6859H28.597H28.5081H28.4192H28.3303H28.2413H28.1524H28.0635H27.9745H27.8856H27.7966H27.7076H27.6187H27.5297H27.4408H27.3518H27.2629H27.174H27.085H26.9961H26.9072H26.8183H26.7295H26.6406H26.5518H26.4629H26.3741H26.2854H26.1966H26.1079H26.0191H25.9305H25.8418H25.7532H25.6646H25.576H25.4875H25.399H25.3105H25.2221H25.1337H25.0453H24.957H24.8687H24.7805H24.6923H24.6042H24.5161H24.428H24.34H24.2521H24.1642H24.0764H23.9886H23.9008H23.8132H23.7256H23.638H23.5505H23.4631H23.3757H23.2884H23.2012H23.1141H23.027H22.9399H22.853H22.7661H22.6793H22.5926H22.5059H22.4194H22.3329H22.2465H22.1602H22.0739H21.9878H21.9017H21.8157H21.7298H21.644H21.5583H21.4727H21.3872H21.3017H21.2164H21.1312H21.0461H20.961H20.8761H20.7913H20.7066H20.6219H20.5374H20.453H20.3688H20.2846H20.2005H20.1166H20.0327H19.949H19.8654H19.782H19.6986H19.6154H19.5323H19.4493H19.3664H19.2837H19.2011H19.1186H19.0363H18.9541H18.872H18.79H18.7082H18.6266H18.545H18.4637H18.3824H18.346L45.3401 3.50326C45.3531 3.50132 45.3661 3.49886 45.3789 3.49589ZM11.5098 7.53549L45.1723 2.51124C46.3109 2.25144 48.0346 2.11437 49.507 2.59008C50.2557 2.83198 50.9634 3.24043 51.4832 3.89559C52.0068 4.55558 52.3073 5.42503 52.3073 6.52654V6.55005V6.57343V6.59669V6.61981V6.6428V6.66566V6.6884V6.711V6.73348V6.75583V6.77805V6.80015V6.82212V6.84396V6.86567V6.88726V6.90873V6.93006V6.95128V6.97236V6.99333V7.01417V7.03488V7.05547V7.07594V7.09628V7.11651V7.13661V7.15658V7.17644V7.19617V7.21578V7.23527V7.25464V7.27389V7.29302V7.31203V7.33092V7.34969V7.36834V7.38687V7.40528V7.42358V7.44176V7.45982V7.47776V7.49559V7.51329V7.53089V7.54836V7.56572V7.58297V7.6001V7.61711V7.63401V7.6508V7.66747V7.68403V7.70047V7.7168V7.73302V7.74913V7.76512V7.781V7.79677V7.81243V7.82797V7.84341V7.85873V7.87395V7.88905V7.90405V7.91893V7.93371V7.94838V7.96294V7.97739V7.99173V8.00597V8.02009V8.03411V8.03543V8.04035V8.04529V8.04803V8.05025V8.05522V8.06022V8.06184V8.06523V8.07026V8.07531V8.07554V8.08037V8.08546V8.08913V8.09055V8.09567V8.10079V8.10262V8.10594V8.1111V8.11601V8.11627V8.12146V8.12666V8.12929V8.13188V8.13711V8.14235V8.14246V8.14761V8.15288V8.15553V8.15816V8.16346V8.1685V8.16876V8.17408V8.17941V8.18136V8.18475V8.1901V8.19412V8.19546V8.20083V8.20621V8.20677V8.2116V8.217V8.21932V8.22241V8.22783V8.23177V8.23325V8.23869V8.24413V8.24958V8.25504V8.25637V8.2605V8.26597V8.26851V8.27144V8.27693V8.28055V8.28241V8.28791V8.29249V8.29341V8.29891V8.30433V8.30442V8.30993V8.31545V8.31607V8.32097V8.32649V8.32771V8.33202V8.33755V8.33925V8.34308V8.34861V8.35069V8.35415V8.35968V8.36202V8.36522V8.37076V8.37326V8.37631V8.38185V8.38441V8.38739V8.39293V8.39545V8.39847V8.40401V8.40639V8.40955V8.41509V8.41724V8.42062V8.42616V8.42799V8.43169V8.43722V8.43864V8.44275V8.44827V8.44919V8.45379V8.45931V8.45965V8.46482V8.47001V8.47033V8.47584V8.48027V8.48134V8.48683V8.49044V8.49232V8.49781V8.50051V8.50328V8.50876V8.51049V8.51422V8.51968V8.52037V8.52513V8.53016V8.53057V8.53601V8.53985V8.54144V8.54686V8.54945V8.55227V8.55767V8.55896V8.56306V8.56837V8.56845V8.57382V8.57768V8.57919V8.58454V8.58691V8.58738C52.779 8.94553 53.1556 9.37461 53.4497 9.84209C54.2426 11.1024 54.4054 12.5903 54.3191 13.59V13.6475V13.7276V13.808V13.8887V13.9697V14.0511V14.1327V14.2147V14.297V14.3796V14.4626V14.5458V14.6294V14.7132V14.7974V14.8818V14.9666V15.0517V15.137V15.2227V15.3086V15.3949V15.4814V15.5682V15.6553V15.7427V15.8304V15.9184V16.0066V16.0952V16.184V16.273V16.3624V16.452V16.5419V16.632V16.7225V16.8131V16.9041V16.9953V17.0868V17.1785V17.2705V17.3627V17.4552V17.5479V17.6409V17.7342V17.8277V17.9214V18.0153V18.1095V18.204V18.2987V18.3936V18.4887V18.5841V18.6797V18.7756V18.8716V18.9679V19.0644V19.1612V19.2581V19.3553V19.4527V19.5503V19.6481V19.7461V19.8443V19.9427V20.0414V20.1402V20.2393V20.3385V20.438V20.5376V20.6374V20.7375V20.8377V20.9381V21.0387V21.1394V21.2404V21.3416V21.4429V21.5444V21.6461V21.7479V21.85V21.9522V22.0545V22.1571V22.2598V22.3627V22.4657V22.5689V22.6722V22.7758V22.8794V22.9833V23.0872V23.1914V23.2956V23.4001V23.5046V23.6093V23.7142V23.8192V23.9243V24.0296V24.135V24.2405V24.3462V24.452V24.5579V24.664V24.7702V24.8765V24.9829V25.0895V25.1961V25.3029V25.4098V25.5168V25.6239V25.7311V25.8385V25.9459V26.0534V26.1611V26.2688V26.3766V26.4846V26.5926V26.7007V26.809V26.9173V27.0257V27.1341V27.2427V27.3513V27.4601V27.5689V27.6777V27.7867V27.8957V28.0048V28.114V28.2233V28.3326V28.4419V28.5514V28.6609V28.7704V28.8801V28.9897V29.0995V29.2092V29.3191V29.429V29.5389V29.6489V29.7589V29.8689V29.9791V30.0892V30.1994V30.3096V30.4198V30.5301V30.6404V30.7508V30.8611V30.9715V31.0819V31.1924V31.3028V31.4133V31.5238V31.6343V31.7448V31.8553V31.9659V32.0764V32.1869V32.2975V32.408V32.5186V32.6292V32.7397V32.8502V32.9608V33.0713V33.1818V33.2923V33.4028V33.5133V33.6238V33.7342V33.8446V33.955V34.0654V34.1758V34.2861V34.3964V34.5066V34.6169V34.7271V34.8372V34.9473V35.0574V35.1675V35.2775V35.3874V35.4973V35.6072V35.717V35.8267V35.9364V36.0461V36.1556V36.2652V36.3746V36.484V36.5934V36.7026V36.8119V36.921V37.0301V37.139V37.248V37.3568V37.4656V37.5742V37.6828V37.7914V37.8998V38.0081V38.1164V38.2245V38.3326V38.4406V38.5485V38.6562V38.7639V38.8715V38.979V39.0864V39.1936V39.3008V39.4079V39.5148V39.6216V39.7283V39.8349V39.9414V40.0478V40.154V40.2601V40.3661V40.4719V40.5777V40.6833V40.7887V40.8941V40.9993V41.1043V41.2092V41.314V41.4186V41.5231V41.6275V41.7317V41.8357V41.9396V42.0433V42.1469V42.2503V42.3536V42.4567V42.5597V42.6624V42.765V42.8675V42.9698V43.0719V43.1738V43.2756V43.3771V43.4785V43.5798V43.6808V43.7817V43.8823V43.9828V44.0831V44.1832V44.2832V44.3829V44.4824V44.5817V44.6809V44.7798V44.8785V44.977V45.0754V45.1735V45.2714V45.3691V45.4665V45.5638V45.6608V45.7577V45.8543V45.9507V46.0468V46.1427V46.2385V46.3339V46.4292V46.5242V46.619V46.7135V46.8078V46.9019V46.9957V47.0893V47.1827V47.2758V47.3686V47.4612V47.5536V47.6456V47.7375V47.8291V47.9204V48.0115V48.1022V48.1928V48.2831V48.3731V48.4628V48.5523V48.6415V48.7304V48.819V48.9074V48.9955V49.0833V49.1708V49.258V49.345V49.4316V49.518V49.6041V49.6899V49.7753V49.8605V49.9454V50.03V50.1143V50.1983V50.282V50.3654V50.4484V50.5312V50.6136V50.6957V50.7776V50.859V50.9402V51.0211V51.1016V51.1818V51.2617V51.3412V51.4204V51.4993V51.5779V51.6561V51.734V51.8115V51.8887V51.9656V52.0421V52.1183V52.1941V52.2695V52.3447V52.4194V52.4938V52.5679V52.6416V52.7149V52.7879V52.8605V52.9327V53.0046V53.0761V53.1473V53.218V53.2884V53.3585V53.4281V53.4974V53.5662V53.6347V53.7028V53.7706V53.8379V53.9049V53.9714V54.0376V54.1033V54.1687V54.2337V54.2983V54.3624V54.4262V54.4896V54.5525V54.6151V54.6772V54.7389V54.8002V54.8611V54.9216V54.9817V55.0413V55.1005V55.1593V55.2177V55.2756V55.3331V55.3902V55.4468V55.503V55.5588V55.6141V55.669V55.7234V55.7774V55.831V55.8841V55.9367V55.9889V56.0407V56.092V56.1428V56.1932V56.2432V56.2926V56.3416V56.3902V56.4382V56.4858V56.533V56.5796V56.6258V56.6715V56.7167V56.7615V56.8058V56.8496V56.8929V56.9357V56.978V57.0199V57.0612V57.1021V57.1424V57.1823V57.2217V57.2606V57.2989V57.3368V57.3741V57.411V57.4473V57.4832V57.5185V57.5533V57.5876V57.6214V57.6546V57.6874V57.7196V57.7513V57.7824V57.8131V57.8432V57.8727V57.9018V57.9303V57.9583V57.9857V58.0126V58.0389V58.0647V58.09V58.1147V58.1389V58.1625V58.1855V58.208V58.23V58.2514V58.2722V58.2925V58.3122V58.3313C54.3191 59.2281 54.0839 59.9627 53.6802 60.5485C53.279 61.1305 52.731 61.5374 52.1462 61.8158C51.0008 62.3611 49.6585 62.4407 48.762 62.355H11.5674C11.2896 62.355 11.0645 62.1298 11.0645 61.8521V8.03519C11.0645 7.77689 11.2592 7.56406 11.5098 7.53549ZM12.0704 61.3491V8.53815H12.071H12.1351H12.1994H12.264H12.3289H12.394H12.4594H12.525H12.5909H12.657H12.7234H12.79H12.8568H12.9239H12.9912H13.0588H13.1266H13.1946H13.2629H13.3314H13.4001H13.4691H13.5383H13.6077H13.6774H13.7472H13.8173H13.8877H13.9582H14.029H14.0999H14.1711H14.2425H14.3142H14.386H14.458H14.5303H14.6028H14.6754H14.7483H14.8214H14.8947H14.9682H15.0419H15.1158H15.1899H15.2642H15.3387H15.4133H15.4882H15.5633H15.6385H15.714H15.7896H15.8654H15.9415H16.0176H16.094H16.1706H16.2473H16.3242H16.4013H16.4786H16.556H16.6336H16.7114H16.7894H16.8675H16.9458H17.0243H17.1029H17.1817H17.2606H17.3398H17.419H17.4985H17.5781H17.6578H17.7377H17.8178H17.898H17.9784H18.0589H18.1396H18.2204H18.3013H18.3824H18.4637H18.545H18.6266H18.7082H18.79H18.872H18.9541H19.0363H19.1186H19.2011H19.2837H19.3664H19.4493H19.5323H19.6154H19.6986H19.782H19.8654H19.949H20.0327H20.1166H20.2005H20.2846H20.3688H20.453H20.5374H20.6219H20.7066H20.7913H20.8761H20.961H21.0461H21.1312H21.2164H21.3017H21.3872H21.4727H21.5583H21.644H21.7298H21.8157H21.9017H21.9878H22.0739H22.1602H22.2465H22.3329H22.4194H22.5059H22.5926H22.6793H22.7661H22.853H22.9399H23.027H23.1141H23.2012H23.2884H23.3757H23.4631H23.5505H23.638H23.7256H23.8132H23.9008H23.9886H24.0764H24.1642H24.2521H24.34H24.428H24.5161H24.6042H24.6923H24.7805H24.8687H24.957H25.0453H25.1337H25.2221H25.3105H25.399H25.4875H25.576H25.6646H25.7532H25.8418H25.9305H26.0191H26.1079H26.1966H26.2854H26.3741H26.4629H26.5518H26.6406H26.7295H26.8183H26.9072H26.9961H27.085H27.174H27.2629H27.3518H27.4408H27.5297H27.6187H27.7076H27.7966H27.8856H27.9745H28.0635H28.1524H28.2413H28.3303H28.4192H28.5081H28.597H28.6859H28.7748H28.8637H28.9525H29.0413H29.1302H29.2189H29.3077H29.3965H29.4852H29.5739H29.6626H29.7512H29.8398H29.9284H30.0169H30.1055H30.1939H30.2824H30.3708H30.4592H30.5475H30.6358H30.724H30.8123H30.9004H30.9885H31.0766H31.1646H31.2526H31.3405H31.4283H31.5161H31.6039H31.6916H31.7792H31.8668H31.9543H32.0418H32.1291H32.2165H32.3037H32.3909H32.478H32.5651H32.6521H32.739H32.8258H32.9126H32.9992H33.0858H33.1724H33.2588H33.3452H33.4314H33.5176H33.6037H33.6897H33.7757H33.8615H33.9473H34.0329H34.1185H34.2039H34.2893H34.3746H34.4597H34.5448H34.6298H34.7147H34.7994H34.8841H34.9686H35.0531H35.1374H35.2216H35.3057H35.3897H35.4736H35.5573H35.641H35.7245H35.8079H35.8912H35.9744H36.0574H36.1403H36.2231H36.3057H36.3883H36.4707H36.5529H36.6351H36.7171H36.7989H36.8806H36.9622H37.0437H37.125H37.2061H37.2871H37.368H37.4487H37.5293H37.6097H37.69H37.7701H37.8501H37.9299H38.0096H38.0891H38.1684H38.2476H38.3266H38.4055H38.4842H38.5627H38.6411H38.7193H38.7973H38.8752H38.9528H39.0304H39.1077H39.1849H39.2618H39.3386H39.4153H39.4917H39.568H39.6441H39.72H39.7957H39.8712H39.9465H40.0217H40.0966H40.1714H40.246H40.3203H40.3945H40.4685H40.5423H40.6158H40.6892H40.7624H40.8353H40.9081H40.9807H41.053H41.1251H41.1971H41.2688H41.3403H41.4115H41.4826H41.5535H41.6241H41.6945H41.7647H41.8346H41.9044H41.9739H42.0432H42.1122H42.1811H42.2497H42.318H42.3862H42.454H42.5217H42.5891H42.6563H42.7233H42.79H42.8564H42.9226H42.9886H43.0543H43.1198H43.185H43.25H43.3147H43.3792H43.4434H43.5074H43.5711H43.6345H43.6977H43.7606H43.8233H43.8857H43.9478H44.0097H44.0712H44.1326H44.1936H44.2544H44.3149H44.3752H44.4351H44.4948H44.5542H44.6133H44.6722H44.7307H44.789H44.847H44.9047H44.9621H45.0193H45.0761H45.1326H45.1889H45.2449H45.3005H45.3559H45.411H45.4657H45.5202H45.5744H45.6282H45.6818H45.7351H45.788H45.8406H45.893H45.945H45.9967H46.0481H46.0992H46.1499H46.2003H46.2505H46.3003H46.3497H46.3989H46.4477H46.4962H46.5444H46.5923H46.6398H46.687H46.7338H46.7803H46.8265H46.8724H46.9179H46.9631H47.0079H47.0524H47.0965H47.1404H47.1838H47.2269H47.2697H47.3121H47.3542H47.3959H47.4372H47.4782H47.5189H47.5592H47.5991H47.6387H47.6779H47.7167H47.7552H47.7933H47.8311H47.8685H47.9055H47.9421H47.9784H48.0143H48.0498H48.085H48.1197H48.1541H48.1881H48.2218H48.255H48.2879H48.3204H48.3524H48.3841H48.4155H48.4464H48.4769H48.5071H48.5368H48.5662H48.5951H48.6237H48.6518H48.6796H48.7069H48.7339H48.7604H48.7866C50.8333 8.53815 51.9687 9.37693 52.5983 10.3777C53.2495 11.4128 53.392 12.6777 53.3153 13.5222C53.3139 13.5374 53.3132 13.5526 53.3132 13.5678V13.6475V13.7276V13.808V13.8887V13.9697V14.0511V14.1327V14.2147V14.297V14.3796V14.4626V14.5458V14.6294V14.7132V14.7974V14.8818V14.9666V15.0517V15.137V15.2227V15.3086V15.3949V15.4814V15.5682V15.6553V15.7427V15.8304V15.9184V16.0066V16.0952V16.184V16.273V16.3624V16.452V16.5419V16.632V16.7225V16.8131V16.9041V16.9953V17.0868V17.1785V17.2705V17.3627V17.4552V17.5479V17.6409V17.7342V17.8277V17.9214V18.0153V18.1095V18.204V18.2987V18.3936V18.4887V18.5841V18.6797V18.7756V18.8716V18.9679V19.0644V19.1612V19.2581V19.3553V19.4527V19.5503V19.6481V19.7461V19.8443V19.9427V20.0414V20.1402V20.2393V20.3385V20.438V20.5376V20.6374V20.7375V20.8377V20.9381V21.0387V21.1394V21.2404V21.3416V21.4429V21.5444V21.6461V21.7479V21.85V21.9522V22.0545V22.1571V22.2598V22.3627V22.4657V22.5689V22.6722V22.7758V22.8794V22.9833V23.0872V23.1914V23.2956V23.4001V23.5046V23.6093V23.7142V23.8192V23.9243V24.0296V24.135V24.2405V24.3462V24.452V24.5579V24.664V24.7702V24.8765V24.9829V25.0895V25.1961V25.3029V25.4098V25.5168V25.6239V25.7311V25.8385V25.9459V26.0534V26.1611V26.2688V26.3766V26.4846V26.5926V26.7007V26.809V26.9173V27.0257V27.1341V27.2427V27.3513V27.4601V27.5689V27.6777V27.7867V27.8957V28.0048V28.114V28.2233V28.3326V28.4419V28.5514V28.6609V28.7704V28.8801V28.9897V29.0995V29.2092V29.3191V29.429V29.5389V29.6489V29.7589V29.8689V29.9791V30.0892V30.1994V30.3096V30.4198V30.5301V30.6404V30.7508V30.8611V30.9715V31.0819V31.1924V31.3028V31.4133V31.5238V31.6343V31.7448V31.8553V31.9659V32.0764V32.1869V32.2975V32.408V32.5186V32.6292V32.7397V32.8502V32.9608V33.0713V33.1818V33.2923V33.4028V33.5133V33.6238V33.7342V33.8446V33.955V34.0654V34.1758V34.2861V34.3964V34.5066V34.6169V34.7271V34.8372V34.9473V35.0574V35.1675V35.2775V35.3874V35.4973V35.6072V35.717V35.8267V35.9364V36.0461V36.1556V36.2652V36.3746V36.484V36.5934V36.7026V36.8119V36.921V37.0301V37.139V37.248V37.3568V37.4656V37.5742V37.6828V37.7914V37.8998V38.0081V38.1164V38.2245V38.3326V38.4406V38.5485V38.6562V38.7639V38.8715V38.979V39.0864V39.1936V39.3008V39.4079V39.5148V39.6216V39.7283V39.8349V39.9414V40.0478V40.154V40.2601V40.3661V40.4719V40.5777V40.6833V40.7887V40.8941V40.9993V41.1043V41.2092V41.314V41.4186V41.5231V41.6275V41.7317V41.8357V41.9396V42.0433V42.1469V42.2503V42.3536V42.4567V42.5597V42.6624V42.765V42.8675V42.9698V43.0719V43.1738V43.2756V43.3771V43.4785V43.5798V43.6808V43.7817V43.8823V43.9828V44.0831V44.1832V44.2832V44.3829V44.4824V44.5817V44.6809V44.7798V44.8785V44.977V45.0754V45.1735V45.2714V45.3691V45.4665V45.5638V45.6608V45.7577V45.8543V45.9507V46.0468V46.1427V46.2385V46.3339V46.4292V46.5242V46.619V46.7135V46.8078V46.9019V46.9957V47.0893V47.1827V47.2758V47.3686V47.4612V47.5536V47.6456V47.7375V47.8291V47.9204V48.0115V48.1022V48.1928V48.2831V48.3731V48.4628V48.5523V48.6415V48.7304V48.819V48.9074V48.9955V49.0833V49.1708V49.258V49.345V49.4316V49.518V49.6041V49.6899V49.7753V49.8605V49.9454V50.03V50.1143V50.1983V50.282V50.3654V50.4484V50.5312V50.6136V50.6957V50.7776V50.859V50.9402V51.0211V51.1016V51.1818V51.2617V51.3412V51.4204V51.4993V51.5779V51.6561V51.734V51.8115V51.8887V51.9656V52.0421V52.1183V52.1941V52.2695V52.3447V52.4194V52.4938V52.5679V52.6416V52.7149V52.7879V52.8605V52.9327V53.0046V53.0761V53.1473V53.218V53.2884V53.3585V53.4281V53.4974V53.5662V53.6347V53.7028V53.7706V53.8379V53.9049V53.9714V54.0376V54.1033V54.1687V54.2337V54.2983V54.3624V54.4262V54.4896V54.5525V54.6151V54.6772V54.7389V54.8002V54.8611V54.9216V54.9817V55.0413V55.1005V55.1593V55.2177V55.2756V55.3331V55.3902V55.4468V55.503V55.5588V55.6141V55.669V55.7234V55.7774V55.831V55.8841V55.9367V55.9889V56.0407V56.092V56.1428V56.1932V56.2432V56.2926V56.3416V56.3902V56.4382V56.4858V56.533V56.5796V56.6258V56.6715V56.7167V56.7615V56.8058V56.8496V56.8929V56.9357V56.978V57.0199V57.0612V57.1021V57.1424V57.1823V57.2217V57.2606V57.2989V57.3368V57.3741V57.411V57.4473V57.4832V57.5185V57.5533V57.5876V57.6214V57.6546V57.6874V57.7196V57.7513V57.7824V57.8131V57.8432V57.8727V57.9018V57.9303V57.9583V57.9857V58.0126V58.0389V58.0647V58.09V58.1147V58.1389V58.1625V58.1855V58.208V58.23V58.2514V58.2722V58.2925V58.3122V58.3313C53.3132 59.044 53.1293 59.5752 52.8519 59.9776C52.572 60.3837 52.1769 60.6871 51.7139 60.9075C50.7746 61.3546 49.6168 61.4296 48.8366 61.3516C48.82 61.3499 48.8033 61.3491 48.7866 61.3491H12.0704Z" fill="#005761"/>
<path d="M15.5009 51.7539V47.0018H17.3758C17.7362 47.0018 18.0433 47.0706 18.297 47.2083C18.5507 47.3444 18.744 47.5339 18.8771 47.7768C19.0117 48.0181 19.079 48.2965 19.079 48.6121C19.079 48.9277 19.0109 49.2061 18.8748 49.4474C18.7386 49.6888 18.5414 49.8767 18.2831 50.0113C18.0263 50.1459 17.7153 50.2132 17.3503 50.2132H16.1553V49.408H17.1878C17.3812 49.408 17.5405 49.3747 17.6658 49.3082C17.7927 49.2402 17.887 49.1466 17.9489 49.0275C18.0123 48.9068 18.0441 48.7683 18.0441 48.6121C18.0441 48.4543 18.0123 48.3166 17.9489 48.1991C17.887 48.08 17.7927 47.9879 17.6658 47.923C17.539 47.8564 17.3781 47.8232 17.1832 47.8232H16.5056V51.7539H15.5009ZM20.0019 51.7539H18.9252L20.5657 47.0018H21.8605L23.4987 51.7539H22.422L21.2317 48.0877H21.1946L20.0019 51.7539ZM19.9346 49.886H22.4777V50.6703H19.9346V49.886ZM26.5401 48.3685C26.5216 48.1813 26.4419 48.0359 26.3011 47.9322C26.1604 47.8286 25.9693 47.7768 25.728 47.7768C25.564 47.7768 25.4256 47.8 25.3127 47.8464C25.1997 47.8912 25.1131 47.9539 25.0528 48.0343C24.994 48.1148 24.9646 48.206 24.9646 48.3081C24.9615 48.3932 24.9793 48.4675 25.018 48.5309C25.0582 48.5943 25.1131 48.6492 25.1827 48.6956C25.2523 48.7405 25.3328 48.7799 25.424 48.814C25.5153 48.8465 25.6128 48.8743 25.7164 48.8975L26.1434 48.9996C26.3506 49.046 26.5409 49.1079 26.7142 49.1852C26.8874 49.2626 27.0375 49.3577 27.1643 49.4706C27.2912 49.5836 27.3894 49.7166 27.459 49.8698C27.5302 50.0229 27.5665 50.1985 27.5681 50.3965C27.5665 50.6873 27.4923 50.9395 27.3453 51.1529C27.1999 51.3649 26.9895 51.5296 26.7142 51.6472C26.4404 51.7632 26.1101 51.8212 25.7234 51.8212C25.3397 51.8212 25.0056 51.7624 24.721 51.6448C24.4379 51.5273 24.2167 51.3533 24.0573 51.1228C23.8995 50.8907 23.8168 50.6038 23.8091 50.2619H24.7813C24.7921 50.4212 24.8378 50.5543 24.9182 50.661C25.0002 50.7662 25.1092 50.8459 25.2454 50.9C25.383 50.9526 25.5385 50.9789 25.7118 50.9789C25.8819 50.9789 26.0297 50.9541 26.155 50.9046C26.2818 50.8551 26.38 50.7863 26.4496 50.6981C26.5193 50.61 26.5541 50.5086 26.5541 50.3942C26.5541 50.2874 26.5224 50.1977 26.4589 50.125C26.3971 50.0523 26.3058 49.9904 26.1851 49.9394C26.066 49.8883 25.9198 49.8419 25.7466 49.8001L25.2291 49.6702C24.8285 49.5727 24.5121 49.4204 24.2801 49.2131C24.0481 49.0058 23.9328 48.7266 23.9344 48.3754C23.9328 48.0877 24.0094 47.8363 24.1641 47.6213C24.3203 47.4063 24.5346 47.2384 24.8068 47.1178C25.0791 46.9971 25.3885 46.9368 25.735 46.9368C26.0877 46.9368 26.3955 46.9971 26.6585 47.1178C26.923 47.2384 27.1287 47.4063 27.2757 47.6213C27.4227 47.8363 27.4985 48.0854 27.5031 48.3685H26.5401ZM30.8218 48.3685C30.8033 48.1813 30.7236 48.0359 30.5828 47.9322C30.4421 47.8286 30.251 47.7768 30.0097 47.7768C29.8457 47.7768 29.7073 47.8 29.5943 47.8464C29.4814 47.8912 29.3948 47.9539 29.3345 48.0343C29.2757 48.1148 29.2463 48.206 29.2463 48.3081C29.2432 48.3932 29.261 48.4675 29.2997 48.5309C29.3399 48.5943 29.3948 48.6492 29.4644 48.6956C29.534 48.7405 29.6145 48.7799 29.7057 48.814C29.797 48.8465 29.8945 48.8743 29.9981 48.8975L30.425 48.9996C30.6323 49.046 30.8226 49.1079 30.9959 49.1852C31.1691 49.2626 31.3192 49.3577 31.446 49.4706C31.5729 49.5836 31.6711 49.7166 31.7407 49.8698C31.8119 50.0229 31.8482 50.1985 31.8498 50.3965C31.8482 50.6873 31.774 50.9395 31.627 51.1529C31.4816 51.3649 31.2712 51.5296 30.9959 51.6472C30.7221 51.7632 30.3918 51.8212 30.0051 51.8212C29.6214 51.8212 29.2873 51.7624 29.0026 51.6448C28.7196 51.5273 28.4984 51.3533 28.339 51.1228C28.1812 50.8907 28.0985 50.6038 28.0907 50.2619H29.063C29.0738 50.4212 29.1194 50.5543 29.1999 50.661C29.2819 50.7662 29.3909 50.8459 29.5271 50.9C29.6647 50.9526 29.8202 50.9789 29.9935 50.9789C30.1636 50.9789 30.3113 50.9541 30.4366 50.9046C30.5635 50.8551 30.6617 50.7863 30.7313 50.6981C30.8009 50.61 30.8358 50.5086 30.8358 50.3942C30.8358 50.2874 30.804 50.1977 30.7406 50.125C30.6787 50.0523 30.5875 49.9904 30.4668 49.9394C30.3477 49.8883 30.2015 49.8419 30.0283 49.8001L29.5108 49.6702C29.1102 49.5727 28.7938 49.4204 28.5618 49.2131C28.3297 49.0058 28.2145 48.7266 28.216 48.3754C28.2145 48.0877 28.2911 47.8363 28.4458 47.6213C28.602 47.4063 28.8162 47.2384 29.0885 47.1178C29.3608 46.9971 29.6701 46.9368 30.0167 46.9368C30.3694 46.9368 30.6772 46.9971 30.9402 47.1178C31.2047 47.2384 31.4104 47.4063 31.5574 47.6213C31.7043 47.8363 31.7801 48.0854 31.7848 48.3685H30.8218ZM32.5256 51.7539V47.0018H34.4004C34.7609 47.0018 35.0679 47.0706 35.3216 47.2083C35.5753 47.3444 35.7687 47.5339 35.9017 47.7768C36.0363 48.0181 36.1036 48.2965 36.1036 48.6121C36.1036 48.9277 36.0355 49.2061 35.8994 49.4474C35.7633 49.6888 35.566 49.8767 35.3077 50.0113C35.0509 50.1459 34.74 50.2132 34.3749 50.2132H33.1799V49.408H34.2125C34.4059 49.408 34.5652 49.3747 34.6905 49.3082C34.8173 49.2402 34.9117 49.1466 34.9736 49.0275C35.037 48.9068 35.0687 48.7683 35.0687 48.6121C35.0687 48.4543 35.037 48.3166 34.9736 48.1991C34.9117 48.08 34.8173 47.9879 34.6905 47.923C34.5636 47.8564 34.4028 47.8232 34.2079 47.8232H33.5303V51.7539H32.5256ZM41.1232 49.3778C41.1232 49.8961 41.0249 50.3369 40.8285 50.7005C40.6336 51.064 40.3675 51.3417 40.0303 51.5335C39.6946 51.7237 39.3171 51.8189 38.8979 51.8189C38.4756 51.8189 38.0966 51.723 37.7609 51.5311C37.4253 51.3393 37.16 51.0617 36.965 50.6981C36.7701 50.3346 36.6727 49.8945 36.6727 49.3778C36.6727 48.8596 36.7701 48.4187 36.965 48.0552C37.16 47.6917 37.4253 47.4148 37.7609 47.2245C38.0966 47.0327 38.4756 46.9368 38.8979 46.9368C39.3171 46.9368 39.6946 47.0327 40.0303 47.2245C40.3675 47.4148 40.6336 47.6917 40.8285 48.0552C41.0249 48.4187 41.1232 48.8596 41.1232 49.3778ZM40.1045 49.3778C40.1045 49.0422 40.0543 48.7591 39.9537 48.5286C39.8547 48.2981 39.7147 48.1233 39.5337 48.0042C39.3527 47.8851 39.1408 47.8255 38.8979 47.8255C38.6551 47.8255 38.4431 47.8851 38.2621 48.0042C38.0812 48.1233 37.9404 48.2981 37.8398 48.5286C37.7408 48.7591 37.6913 49.0422 37.6913 49.3778C37.6913 49.7135 37.7408 49.9966 37.8398 50.2271C37.9404 50.4576 38.0812 50.6324 38.2621 50.7515C38.4431 50.8706 38.6551 50.9302 38.8979 50.9302C39.1408 50.9302 39.3527 50.8706 39.5337 50.7515C39.7147 50.6324 39.8547 50.4576 39.9537 50.2271C40.0543 49.9966 40.1045 49.7135 40.1045 49.3778ZM41.8674 51.7539V47.0018H43.7423C44.1012 47.0018 44.4075 47.066 44.6612 47.1944C44.9164 47.3212 45.1106 47.5014 45.2436 47.735C45.3782 47.967 45.4455 48.2401 45.4455 48.5541C45.4455 48.8697 45.3774 49.1412 45.2413 49.3686C45.1051 49.5944 44.9079 49.7677 44.6496 49.8883C44.3928 50.009 44.0819 50.0693 43.7168 50.0693H42.4615V49.2618H43.5544C43.7462 49.2618 43.9055 49.2355 44.0324 49.1829C44.1592 49.1303 44.2536 49.0514 44.3154 48.9462C44.3789 48.8411 44.4106 48.7103 44.4106 48.5541C44.4106 48.3963 44.3789 48.2633 44.3154 48.155C44.2536 48.0467 44.1584 47.9647 44.03 47.909C43.9032 47.8518 43.7431 47.8232 43.5497 47.8232H42.8722V51.7539H41.8674ZM44.4338 49.5913L45.6149 51.7539H44.5057L43.3502 49.5913H44.4338ZM45.9745 47.8301V47.0018H49.8774V47.8301H48.4225V51.7539H47.4294V47.8301H45.9745Z" fill="#F04A3D"/>
<circle cx="32.6912" cy="28.1483" r="12.0711" stroke="#005761" stroke-width="1.00592"/>
<path d="M20.6211 28.6484H44.7632" stroke="#005761" stroke-width="1.00592" stroke-linejoin="round"/>
<path d="M33.0518 16.0781C29.3634 20.4371 24.1997 31.3682 33.0518 40.2203" stroke="#005761" stroke-width="1.00592" stroke-linejoin="round"/>
<path d="M32.5498 16.0781C36.2382 20.4371 41.4019 31.3682 32.5498 40.2203" stroke="#005761" stroke-width="1.00592" stroke-linejoin="round"/>
<path d="M22.6328 21.1094C25.9859 23.4565 34.7039 26.7425 42.7513 21.1094" stroke="#005761" stroke-width="1.00592" stroke-linejoin="round"/>
<path d="M22.6328 35.7852C25.9859 33.438 34.7039 30.152 42.7513 35.7852" stroke="#005761" stroke-width="1.00592" stroke-linejoin="round"/>
</svg>
