<svg width="64" height="65" viewBox="0 0 64 65" fill="none" xmlns="http://www.w3.org/2000/svg">
<path d="M24.4873 7.35992H26.1748V14.6921C26.1748 15.4723 25.9915 16.1636 25.625 16.766C25.2585 17.3647 24.7432 17.8365 24.0791 18.1812C23.415 18.5223 22.6366 18.6929 21.7439 18.6929C20.8548 18.6929 20.0782 18.5223 19.4142 18.1812C18.7501 17.8365 18.2348 17.3647 17.8683 16.766C17.5018 16.1636 17.3185 15.4723 17.3185 14.6921V7.35992H19.0005V14.556C19.0005 15.0604 19.1112 15.5086 19.3325 15.9005C19.5575 16.2924 19.875 16.6008 20.2851 16.8258C20.6952 17.0472 21.1814 17.1579 21.7439 17.1579C22.31 17.1579 22.7981 17.0472 23.2082 16.8258C23.6218 16.6008 23.9376 16.2924 24.1553 15.9005C24.3766 15.5086 24.4873 15.0604 24.4873 14.556V7.35992ZM34.7003 10.2884C34.6423 9.77312 34.4028 9.37394 33.9818 9.09089C33.5609 8.80421 33.031 8.66087 32.3924 8.66087C31.9351 8.66087 31.5396 8.73345 31.2057 8.8786C30.8719 9.02013 30.6124 9.21609 30.4273 9.46648C30.2459 9.71324 30.1552 9.99448 30.1552 10.3102C30.1552 10.5751 30.2169 10.8037 30.3402 10.9961C30.4673 11.1884 30.6324 11.3499 30.8356 11.4805C31.0424 11.6075 31.2638 11.7146 31.4997 11.8017C31.7355 11.8851 31.9623 11.9541 32.1801 12.0085L33.2687 12.2916C33.6244 12.3786 33.9891 12.4966 34.3628 12.6454C34.7366 12.7942 35.0832 12.9901 35.4025 13.2332C35.7219 13.4764 35.9795 13.7776 36.1755 14.1368C36.3751 14.4961 36.4748 14.9261 36.4748 15.4269C36.4748 16.0583 36.3115 16.619 35.9849 17.1089C35.662 17.5988 35.192 17.9853 34.5751 18.2683C33.9619 18.5514 33.2198 18.6929 32.3488 18.6929C31.5142 18.6929 30.792 18.5604 30.1824 18.2955C29.5727 18.0306 29.0955 17.655 28.7508 17.1688C28.4061 16.6789 28.2155 16.0982 28.1792 15.4269H29.8667C29.8993 15.8297 30.03 16.1654 30.2586 16.4339C30.4908 16.6988 30.7866 16.8966 31.1459 17.0272C31.5087 17.1542 31.9061 17.2177 32.3379 17.2177C32.8133 17.2177 33.2361 17.1434 33.6062 16.9946C33.98 16.8422 34.2739 16.6317 34.488 16.3631C34.7021 16.091 34.8092 15.7735 34.8092 15.4106C34.8092 15.0803 34.7148 14.81 34.5261 14.5995C34.3411 14.389 34.0889 14.2149 33.7695 14.077C33.4538 13.9391 33.0964 13.8175 32.6972 13.7123L31.3799 13.353C30.4872 13.1099 29.7796 12.7524 29.257 12.2807C28.7381 11.8089 28.4786 11.1848 28.4786 10.4082C28.4786 9.76586 28.6528 9.2052 29.0012 8.72619C29.3496 8.24718 29.8213 7.87522 30.4164 7.61031C31.0116 7.34178 31.6829 7.20751 32.4305 7.20751C33.1853 7.20751 33.8512 7.33996 34.4282 7.60487C35.0088 7.86978 35.466 8.23448 35.7999 8.69897C36.1337 9.15984 36.3079 9.68966 36.3224 10.2884H34.7003ZM39.3367 18.5078H37.5513L41.563 7.35992H43.5062L47.518 18.5078H45.7326L42.5809 9.38483H42.4938L39.3367 18.5078ZM39.636 14.1423H45.4277V15.5575H39.636V14.1423Z" fill="#F04A3D"/>
<rect x="4.5264" y="23.1201" width="55.9069" height="34.3723" rx="1.50888" fill="#F3FAFC" stroke="#005761" stroke-width="1.00592"/>
<path d="M53.2453 31.8477H34.7871" stroke="#005761" stroke-width="1.00592" stroke-linecap="round" stroke-linejoin="round"/>
<path d="M53.2453 38H34.7871" stroke="#005761" stroke-width="1.00592" stroke-linecap="round" stroke-linejoin="round"/>
<path d="M53.2453 44.1523H34.7871" stroke="#005761" stroke-width="1.00592" stroke-linecap="round" stroke-linejoin="round"/>
<path d="M53.2453 50.3047H34.7871" stroke="#005761" stroke-width="1.00592" stroke-linecap="round" stroke-linejoin="round"/>
<rect x="10.6787" y="30.8116" width="18.9905" height="20.5287" rx="1.50888" fill="#E6F7F9" stroke="#005761" stroke-width="1.00592"/>
<circle cx="20.1738" cy="38.3828" r="3.46091" fill="#005761"/>
<path d="M13.252 45.3036C14.1172 40.9777 23.6347 37.5163 27.0956 45.3034L13.252 45.3036Z" fill="#005761"/>
</svg>
