<svg width="64" height="65" viewBox="0 0 64 65" fill="none" xmlns="http://www.w3.org/2000/svg">
<rect x="4.5264" y="6.01859" width="47.2784" height="29.0086" rx="1.50888" fill="#F3FAFC" stroke="#005761" stroke-width="1.00592"/>
<path d="M45.7828 13.3438H30.123" stroke="#005761" stroke-width="1.00592" stroke-linecap="round" stroke-linejoin="round"/>
<path d="M45.7828 18.5664H30.123" stroke="#005761" stroke-width="1.00592" stroke-linecap="round" stroke-linejoin="round"/>
<path d="M45.7828 23.7852H30.123" stroke="#005761" stroke-width="1.00592" stroke-linecap="round" stroke-linejoin="round"/>
<path d="M45.7828 29.0078H30.123" stroke="#005761" stroke-width="1.00592" stroke-linecap="round" stroke-linejoin="round"/>
<rect x="9.7471" y="12.542" width="15.9588" height="17.2638" rx="1.50888" stroke="#005761" stroke-width="1.00592"/>
<path d="M31.3594 58.4576L36.2632 50.5664L42.8016 54.9066L38.1207 62.5287L36.2632 58.4576H31.3594Z" stroke="#0E5C66" stroke-width="1.00592" stroke-linecap="round"/>
<path d="M62.5645 58.4576L57.6606 50.5664L51.1222 54.9066L55.8031 62.5287L57.6606 58.4576H62.5645Z" stroke="#0E5C66" stroke-width="1.00592" stroke-linecap="round"/>
<path d="M44.5056 29.809C45.7332 28.4941 47.8177 28.4941 49.0454 29.809C50.0116 30.844 51.4426 31.3089 52.8327 31.0396C54.5987 30.6973 56.2852 31.9226 56.5054 33.708C56.6788 35.1133 57.5632 36.3305 58.8461 36.9297C60.476 37.6908 61.1202 39.6734 60.249 41.2472C59.5632 42.4861 59.5632 43.9906 60.249 45.2295C61.1202 46.8033 60.476 48.7859 58.8461 49.5471C57.5632 50.1462 56.6788 51.3634 56.5054 52.7687C56.2852 54.5541 54.5987 55.7794 52.8327 55.4372C51.4426 55.1678 50.0116 55.6327 49.0454 56.6677C47.8177 57.9827 45.7332 57.9827 44.5056 56.6677C43.5393 55.6327 42.1084 55.1678 40.7183 55.4372C38.9522 55.7794 37.2658 54.5541 37.0455 52.7687C36.8721 51.3634 35.9878 50.1462 34.7048 49.5471C33.0749 48.7859 32.4307 46.8033 33.3019 45.2295C33.9877 43.9906 33.9877 42.4861 33.3019 41.2472C32.4307 39.6734 33.0749 37.6908 34.7048 36.9297C35.9878 36.3305 36.8721 35.1133 37.0455 33.708C37.2658 31.9226 38.9522 30.6973 40.7183 31.0396C42.1084 31.3089 43.5393 30.844 44.5056 29.809Z" fill="#F3FAFC" stroke="#0E5C66" stroke-width="1.00592"/>
<path fill-rule="evenodd" clip-rule="evenodd" d="M46.7697 43.284C44.4685 41.8483 41.611 40.9961 38.5355 40.9961C38.4374 40.9961 38.3501 40.9961 38.252 40.9961V43.9046C38.3501 43.9046 38.4374 43.9046 38.5355 43.9046C40.6513 43.9046 42.6253 44.4326 44.2721 45.3496C45.221 45.8776 46.0717 46.526 46.7697 47.2763C47.4786 46.526 48.3183 45.8684 49.2672 45.3496C50.9249 44.4326 52.8989 43.9046 55.0147 43.9046C55.1129 43.9046 55.2001 43.9046 55.2983 43.9046V40.9961C55.2001 40.9961 55.1129 40.9961 55.0147 40.9961C51.9283 40.9961 49.0818 41.8483 46.7697 43.284Z" fill="#F04A3D"/>
</svg>
